<svg id="Layer_1" data-name="Layer 1" xmlns="http://www.w3.org/2000/svg" viewBox="0 0 513 22.5">
  <title>2</title>
  <g>
    <path d="M6.1.3C1.7.6.6,2.1.2,6.6H0V.1H6.1Zm7.5,22v.2H5.5v-.2c2,0,2.5-.9,2.5-1.8V.1h3.2V20.5C11.1,21.4,11.6,22.3,13.6,22.3ZM19,.1V6.6h-.2c-.4-4.5-1.5-6-5.9-6.3V.1Z"/>
    <path d="M253.1.3c-4.4.3-5.5,1.8-5.9,6.3H247V.1h6.1Zm7.5,22v.2h-8.1v-.2c2,0,2.5-.9,2.5-1.8V.1h3.2V20.5C258.1,21.4,258.6,22.3,260.6,22.3ZM266,.1V6.6h-.2c-.4-4.5-1.5-6-5.9-6.3V.1Z"/>
    <path d="M366.3,22.5v-.2c2,0,2.5-.8,2.5-1.7V2c0-.9-.5-1.7-2.5-1.7V.1H372V22.4h-5.7ZM383.9.1V5.6h-.2C383,1.1,381.9.4,373.8.2V0h10.1ZM373.8,11v-.2l3.6-.1c2.1-.1,2.9-.8,3.5-2.9h.2v6.1h-.2c-.7-2.1-1.4-2.7-3.5-2.8Zm0,11.3c8.3-.2,9.5-.9,10.6-5.6h.2l-.2,5.7H373.8Z"/>
    <path d="M506,5.1l-7.7,17.3h-.4L488.2,1.8c-.5-1.1-1.5-1.5-3-1.5V.1H491l8.6,18L506,4.5ZM491.7,22.3v.2h-6.5v-.2c1.9,0,2.8-1.1,2.9-2.3l.2-15,.2.8.2,14.3C488.6,21.3,489.6,22.3,491.7,22.3ZM510.5,2V20.5c0,1,.5,1.7,2.5,1.7v.2h-8.2v-.2c2,0,2.5-.8,2.5-1.7V.1H513V.3C511,.3,510.5,1.1,510.5,2Z"/>
    <circle cx="131.7" cy="11.3" r="11.2"/>
  </g>
</svg>
