<svg version="1.1" id="letter-E" xmlns="http://www.w3.org/2000/svg" xmlns:xlink="http://www.w3.org/1999/xlink" x="0px" y="0px" viewBox="0 0 39.61 39.61" style="enable-background:new 0 0 39.61 39.61;" xml:space="preserve">
    <g>
    	<path class="st0" d="M5.97,36.67v-0.25c2.98,0,3.72-1.19,3.72-2.58V5.82c0-1.39-0.74-2.63-3.72-2.63V2.94h8.58v33.73H5.97z
    		 M32.51,2.94v8.33h-0.3c-1.09-6.74-2.68-7.84-14.93-8.09V2.94H32.51z M17.28,19.36v-0.3l5.5-0.15c3.17-0.15,4.32-1.19,5.36-4.36
    		h0.29v9.22h-0.29c-1.04-3.17-2.18-4.12-5.36-4.26L17.28,19.36z M17.28,36.42c12.5-0.25,14.33-1.34,16.07-8.43h0.3l-0.35,8.68H17.28
    		V36.42z"/>
    </g>
</svg>
