<svg version="1.1" id="letter-M" xmlns="http://www.w3.org/2000/svg" xmlns:xlink="http://www.w3.org/1999/xlink" x="0px" y="0px" viewBox="0 0 46.79 39.61" style="enable-background:new 0 0 46.79 39.61;" xml:space="preserve">
    <g>
    	<path class="st0" d="M33.91,10.48L22.36,36.67h-0.59L7.08,5.52C6.29,3.88,4.8,3.19,2.51,3.19V2.94h8.73l12.94,27.18l9.73-20.54
    		V10.48z M12.29,36.42v0.25H2.51v-0.25c2.88,0,4.27-1.59,4.32-3.52l0.3-22.72l0.35,1.14L7.72,32.9
    		C7.72,34.89,9.21,36.42,12.29,36.42z M40.76,5.77V33.8c0,1.44,0.75,2.63,3.72,2.63v0.25h-12.3v-0.25c2.98,0,3.72-1.19,3.72-2.63
    		V2.94h8.58v0.25C41.5,3.19,40.76,4.43,40.76,5.77z"/>
    </g>
</svg>
